<svg width="171" height="172" viewBox="0 0 171 172" fill="none" xmlns="http://www.w3.org/2000/svg">
<rect width="171" height="172" fill="#1E1E1E"/>
<path d="M0 50C0 22.3858 22.3858 0 50 0H101C139.66 0 171 31.3401 171 70V102C171 140.66 139.66 172 101 172H50C22.3858 172 0 149.614 0 122V50Z" fill="#FD7253"/>
<path d="M33.0938 96.125H35.1562C36.3021 99.4167 37.6771 102.188 39.2812 104.438C40.9062 106.667 42.6667 108.323 44.5625 109.406C46.4792 110.49 48.4792 111.031 50.5625 111.031C53.1667 111.031 55.3958 110.219 57.25 108.594C59.1042 106.969 60.0312 104.885 60.0312 102.344C60.0312 99.9688 59.4167 98.125 58.1875 96.8125C56.9583 95.4792 55.4896 94.5521 53.7812 94.0312C52.0729 93.4896 49.8229 92.9896 47.0312 92.5312C44.2396 92.0729 42.2604 91.6458 41.0938 91.25C39.2812 90.625 37.7396 89.7708 36.4688 88.6875C35.1979 87.5833 34.2292 86.2708 33.5625 84.75C32.9167 83.2083 32.5938 81.5625 32.5938 79.8125C32.5938 78.1458 32.8854 76.5417 33.4688 75C34.0521 73.4583 34.875 72.0938 35.9375 70.9062C37 69.7188 38.2917 68.7812 39.8125 68.0938C41.3542 67.4062 43.0625 67.0625 44.9375 67.0625C46.2917 67.0625 47.9479 67.2604 49.9062 67.6562C51.8854 68.0312 53.3229 68.2188 54.2188 68.2188C55.3438 68.2188 56.4062 67.9688 57.4062 67.4688H59.7812L61.125 80.3125H58.9375C56.8958 76.4792 54.75 73.5625 52.5 71.5625C50.2708 69.5417 47.6458 68.5312 44.625 68.5312C43.125 68.5312 41.7292 68.8854 40.4375 69.5938C39.1458 70.2812 38.1042 71.2396 37.3125 72.4688C36.5417 73.6979 36.1562 75.0521 36.1562 76.5312C36.1562 78.6146 36.8646 80.2083 38.2812 81.3125C39.6979 82.4167 41.7917 83.25 44.5625 83.8125C47.3542 84.375 49.8438 84.8542 52.0312 85.25C54.2396 85.6458 55.9896 86.1562 57.2812 86.7812C59.6562 87.9479 61.5 89.5625 62.8125 91.625C64.125 93.6875 64.7812 96.0208 64.7812 98.625C64.7812 101.125 64.1771 103.458 62.9688 105.625C61.7604 107.792 60.0625 109.531 57.875 110.844C55.6875 112.135 53.25 112.781 50.5625 112.781C49.0417 112.781 47.8958 112.667 47.125 112.438C46.3542 112.208 45.0312 111.76 43.1562 111.094C41.2812 110.427 39.8438 110.094 38.8438 110.094C37.1771 110.094 35.8542 110.729 34.875 112H33.0938V96.125ZM57.6875 75.9062L56.6562 69.9375C55.9688 70.1667 55.2812 70.2812 54.5938 70.2812C53.8438 70.2812 53.0312 70.1667 52.1562 69.9375C52.9896 70.4792 53.7188 71.0833 54.3438 71.75C54.9688 72.4167 55.625 73.2188 56.3125 74.1562C57 75.0938 57.4583 75.6771 57.6875 75.9062ZM34.125 101.938V110.281C34.7292 109.49 35.2812 108.979 35.7812 108.75C36.3021 108.521 37.0938 108.427 38.1562 108.469C37.4688 107.656 36.9688 107.062 36.6562 106.688C36.3646 106.292 35.9896 105.719 35.5312 104.969C35.0938 104.198 34.625 103.188 34.125 101.938ZM34.125 76.1562C33.7708 77.7396 33.5938 79.0208 33.5938 80C33.5938 81.1042 33.7812 82.2188 34.1562 83.3438C34.5312 84.4479 35.0833 85.5 35.8125 86.5C36.5417 87.4792 37.3646 88.2812 38.2812 88.9062C39.5104 89.7396 40.8646 90.3333 42.3438 90.6875C43.8229 91.0208 45.9792 91.4271 48.8125 91.9062C51.6667 92.3646 53.6354 92.8125 54.7188 93.25C56.7188 93.9792 58.2708 95.0938 59.375 96.5938C60.5 98.0938 61.0625 99.8542 61.0625 101.875C61.0625 103.375 60.6354 104.958 59.7812 106.625C61.4896 104.854 62.3438 102.781 62.3438 100.406C62.3438 97.9479 61.7083 96.0208 60.4375 94.625C59.1875 93.2083 57.625 92.1667 55.75 91.5C53.8958 90.8125 51.3542 90.1875 48.125 89.625C44.8958 89.0417 43.2396 88.7396 43.1562 88.7188C40.1979 87.9479 37.9479 86.6146 36.4062 84.7188C34.8854 82.8229 34.125 80.6354 34.125 78.1562C34.125 77.6979 34.1146 77.3125 34.0938 77C34.0938 76.6875 34.1042 76.4062 34.125 76.1562ZM97.5 101.312L111.156 67.9062H124.656V69.625C122.552 69.6458 121.073 69.9167 120.219 70.4375C119.365 70.9583 118.865 71.7083 118.719 72.6875C118.573 73.6667 118.5 75.4688 118.5 78.0938V105.094C118.5 106.469 118.677 107.51 119.031 108.219C119.406 108.927 120 109.427 120.812 109.719C121.625 109.99 122.906 110.177 124.656 110.281V112H104.5V110.281C106.5 110.26 107.948 110.01 108.844 109.531C109.74 109.052 110.271 108.417 110.438 107.625C110.604 106.812 110.688 105.479 110.688 103.625V73.4688L95.1562 112H93.3438L78 74.6875V100.281C78 103.156 78.5417 105.406 79.625 107.031C80.7292 108.635 82.5521 109.719 85.0938 110.281V112H69.2812V110.281C71.5104 110.052 73.2292 109.188 74.4375 107.688C75.6458 106.167 76.25 104.042 76.25 101.312V72.3125C75.3958 71.375 74.375 70.6771 73.1875 70.2188C72 69.7604 70.6979 69.5625 69.2812 69.625V67.9062H83.5625L97.5 101.312ZM113.719 104.781V74.625C113.719 72.1667 113.906 70.5 114.281 69.625C113.448 69.6875 112.854 69.9271 112.5 70.3438C112.146 70.7396 111.927 71.3021 111.844 72.0312C111.76 72.7396 111.719 73.8854 111.719 75.4688V105.594C111.719 107.094 111.562 108.125 111.25 108.688C110.958 109.229 110.344 109.76 109.406 110.281H110.5C111.938 110.281 112.833 109.875 113.188 109.062C113.542 108.229 113.719 106.802 113.719 104.781ZM75.3125 69.625H74.1562C75.4479 70.125 76.4583 70.8229 77.1875 71.7188C77.9375 72.5938 78.6979 73.9688 79.4688 75.8438L93.9375 110.281C94.3958 109.448 94.625 108.719 94.625 108.094C94.625 107.51 94.3958 106.677 93.9375 105.594L81.5 75.4062C80.7292 73.4271 79.9062 71.9688 79.0312 71.0312C78.1771 70.0938 76.9375 69.625 75.3125 69.625ZM72.875 110.281H79.4688C78.7188 109.885 78.1042 109.344 77.625 108.656C77.1667 107.948 76.8229 107.125 76.5938 106.188C76.3021 107.042 75.8438 107.802 75.2188 108.469C74.6146 109.115 73.8333 109.719 72.875 110.281Z" fill="white"/>
</svg>
