<svg width="179" height="180" viewBox="0 0 179 180" fill="none" xmlns="http://www.w3.org/2000/svg">
<rect width="179" height="180" fill="#1E1E1E"/>
<g filter="url(#filter0_d_0_1)">
<rect x="4" width="171" height="172" rx="5" fill="#FD7253"/>
</g>
<path d="M37.0938 96.125H39.1562C40.3021 99.4167 41.6771 102.188 43.2812 104.438C44.9062 106.667 46.6667 108.323 48.5625 109.406C50.4792 110.49 52.4792 111.031 54.5625 111.031C57.1667 111.031 59.3958 110.219 61.25 108.594C63.1042 106.969 64.0312 104.885 64.0312 102.344C64.0312 99.9688 63.4167 98.125 62.1875 96.8125C60.9583 95.4792 59.4896 94.5521 57.7812 94.0312C56.0729 93.4896 53.8229 92.9896 51.0312 92.5312C48.2396 92.0729 46.2604 91.6458 45.0938 91.25C43.2812 90.625 41.7396 89.7708 40.4688 88.6875C39.1979 87.5833 38.2292 86.2708 37.5625 84.75C36.9167 83.2083 36.5938 81.5625 36.5938 79.8125C36.5938 78.1458 36.8854 76.5417 37.4688 75C38.0521 73.4583 38.875 72.0938 39.9375 70.9062C41 69.7188 42.2917 68.7812 43.8125 68.0938C45.3542 67.4062 47.0625 67.0625 48.9375 67.0625C50.2917 67.0625 51.9479 67.2604 53.9062 67.6562C55.8854 68.0312 57.3229 68.2188 58.2188 68.2188C59.3438 68.2188 60.4062 67.9688 61.4062 67.4688H63.7812L65.125 80.3125H62.9375C60.8958 76.4792 58.75 73.5625 56.5 71.5625C54.2708 69.5417 51.6458 68.5312 48.625 68.5312C47.125 68.5312 45.7292 68.8854 44.4375 69.5938C43.1458 70.2812 42.1042 71.2396 41.3125 72.4688C40.5417 73.6979 40.1562 75.0521 40.1562 76.5312C40.1562 78.6146 40.8646 80.2083 42.2812 81.3125C43.6979 82.4167 45.7917 83.25 48.5625 83.8125C51.3542 84.375 53.8438 84.8542 56.0312 85.25C58.2396 85.6458 59.9896 86.1562 61.2812 86.7812C63.6562 87.9479 65.5 89.5625 66.8125 91.625C68.125 93.6875 68.7812 96.0208 68.7812 98.625C68.7812 101.125 68.1771 103.458 66.9688 105.625C65.7604 107.792 64.0625 109.531 61.875 110.844C59.6875 112.135 57.25 112.781 54.5625 112.781C53.0417 112.781 51.8958 112.667 51.125 112.438C50.3542 112.208 49.0312 111.76 47.1562 111.094C45.2812 110.427 43.8438 110.094 42.8438 110.094C41.1771 110.094 39.8542 110.729 38.875 112H37.0938V96.125ZM61.6875 75.9062L60.6562 69.9375C59.9688 70.1667 59.2812 70.2812 58.5938 70.2812C57.8438 70.2812 57.0312 70.1667 56.1562 69.9375C56.9896 70.4792 57.7188 71.0833 58.3438 71.75C58.9688 72.4167 59.625 73.2188 60.3125 74.1562C61 75.0938 61.4583 75.6771 61.6875 75.9062ZM38.125 101.938V110.281C38.7292 109.49 39.2812 108.979 39.7812 108.75C40.3021 108.521 41.0938 108.427 42.1562 108.469C41.4688 107.656 40.9688 107.062 40.6562 106.688C40.3646 106.292 39.9896 105.719 39.5312 104.969C39.0938 104.198 38.625 103.188 38.125 101.938ZM38.125 76.1562C37.7708 77.7396 37.5938 79.0208 37.5938 80C37.5938 81.1042 37.7812 82.2188 38.1562 83.3438C38.5312 84.4479 39.0833 85.5 39.8125 86.5C40.5417 87.4792 41.3646 88.2812 42.2812 88.9062C43.5104 89.7396 44.8646 90.3333 46.3438 90.6875C47.8229 91.0208 49.9792 91.4271 52.8125 91.9062C55.6667 92.3646 57.6354 92.8125 58.7188 93.25C60.7188 93.9792 62.2708 95.0938 63.375 96.5938C64.5 98.0938 65.0625 99.8542 65.0625 101.875C65.0625 103.375 64.6354 104.958 63.7812 106.625C65.4896 104.854 66.3438 102.781 66.3438 100.406C66.3438 97.9479 65.7083 96.0208 64.4375 94.625C63.1875 93.2083 61.625 92.1667 59.75 91.5C57.8958 90.8125 55.3542 90.1875 52.125 89.625C48.8958 89.0417 47.2396 88.7396 47.1562 88.7188C44.1979 87.9479 41.9479 86.6146 40.4062 84.7188C38.8854 82.8229 38.125 80.6354 38.125 78.1562C38.125 77.6979 38.1146 77.3125 38.0938 77C38.0938 76.6875 38.1042 76.4062 38.125 76.1562ZM101.5 101.312L115.156 67.9062H128.656V69.625C126.552 69.6458 125.073 69.9167 124.219 70.4375C123.365 70.9583 122.865 71.7083 122.719 72.6875C122.573 73.6667 122.5 75.4688 122.5 78.0938V105.094C122.5 106.469 122.677 107.51 123.031 108.219C123.406 108.927 124 109.427 124.812 109.719C125.625 109.99 126.906 110.177 128.656 110.281V112H108.5V110.281C110.5 110.26 111.948 110.01 112.844 109.531C113.74 109.052 114.271 108.417 114.438 107.625C114.604 106.812 114.688 105.479 114.688 103.625V73.4688L99.1562 112H97.3438L82 74.6875V100.281C82 103.156 82.5417 105.406 83.625 107.031C84.7292 108.635 86.5521 109.719 89.0938 110.281V112H73.2812V110.281C75.5104 110.052 77.2292 109.188 78.4375 107.688C79.6458 106.167 80.25 104.042 80.25 101.312V72.3125C79.3958 71.375 78.375 70.6771 77.1875 70.2188C76 69.7604 74.6979 69.5625 73.2812 69.625V67.9062H87.5625L101.5 101.312ZM117.719 104.781V74.625C117.719 72.1667 117.906 70.5 118.281 69.625C117.448 69.6875 116.854 69.9271 116.5 70.3438C116.146 70.7396 115.927 71.3021 115.844 72.0312C115.76 72.7396 115.719 73.8854 115.719 75.4688V105.594C115.719 107.094 115.562 108.125 115.25 108.688C114.958 109.229 114.344 109.76 113.406 110.281H114.5C115.938 110.281 116.833 109.875 117.188 109.062C117.542 108.229 117.719 106.802 117.719 104.781ZM79.3125 69.625H78.1562C79.4479 70.125 80.4583 70.8229 81.1875 71.7188C81.9375 72.5938 82.6979 73.9688 83.4688 75.8438L97.9375 110.281C98.3958 109.448 98.625 108.719 98.625 108.094C98.625 107.51 98.3958 106.677 97.9375 105.594L85.5 75.4062C84.7292 73.4271 83.9062 71.9688 83.0312 71.0312C82.1771 70.0938 80.9375 69.625 79.3125 69.625ZM76.875 110.281H83.4688C82.7188 109.885 82.1042 109.344 81.625 108.656C81.1667 107.948 80.8229 107.125 80.5938 106.188C80.3021 107.042 79.8438 107.802 79.2188 108.469C78.6146 109.115 77.8333 109.719 76.875 110.281Z" fill="black"/>
<defs>
<filter id="filter0_d_0_1" x="0" y="0" width="179" height="180" filterUnits="userSpaceOnUse" color-interpolation-filters="sRGB">
<feFlood flood-opacity="0" result="BackgroundImageFix"/>
<feColorMatrix in="SourceAlpha" type="matrix" values="0 0 0 0 0 0 0 0 0 0 0 0 0 0 0 0 0 0 127 0" result="hardAlpha"/>
<feOffset dy="4"/>
<feGaussianBlur stdDeviation="2"/>
<feComposite in2="hardAlpha" operator="out"/>
<feColorMatrix type="matrix" values="0 0 0 0 0 0 0 0 0 0 0 0 0 0 0 0 0 0 0.25 0"/>
<feBlend mode="normal" in2="BackgroundImageFix" result="effect1_dropShadow_0_1"/>
<feBlend mode="normal" in="SourceGraphic" in2="effect1_dropShadow_0_1" result="shape"/>
</filter>
</defs>
</svg>
