<svg width="97" height="90" viewBox="0 0 97 90" fill="none" xmlns="http://www.w3.org/2000/svg">
<rect width="97" height="90" fill="#1E1E1E"/>
<path d="M0 27C0 12.0883 12.0883 0 27 0H67C83.5685 0 97 13.4315 97 30V57C97 75.2254 82.2254 90 64 90H24C10.7452 90 0 79.2548 0 66V27Z" fill="#EC6350"/>
<path d="M16.52 37.784V45.38L20.624 47.828H28.04V43.616H20.912V39.548H28.04V35.3H20.624L16.52 37.784ZM41.324 46.1V53.552L37.076 56H29.804V51.932H36.788V47.828H29.66V43.616H37.076L41.324 46.1ZM21.056 49.448H16.52V53.552L20.732 56H28.04V51.932H21.056V49.448ZM41.324 41.996H36.788V39.548H29.66V35.3H37.076L41.324 37.784V41.996ZM47.4477 35.3H51.5517L58.9677 42.284V47.72L51.9837 41.132V56H47.4477V35.3ZM72.2517 35.3H68.1837L60.7317 42.284V47.72L67.7157 41.132V56H72.2517V35.3Z" fill="white"/>
</svg>
